Coordinates
version=1
nRows=4
nColumns=63
inDegrees=yes

Units are S.I. units (second, meters, Newtons, ...)
If the header above contains a line with 'inDegrees', this indicates whether rotational values are in degrees (yes) or radians (no).

endheader
time	pelvis_tilt	pelvis_list	pelvis_rotation	pelvis_tx	pelvis_ty	pelvis_tz	hip_flexion_r	hip_adduction_r	hip_rotation_r	knee_angle_r	knee_angle_r_beta	ankle_angle_r	subtalar_angle_r	mtp_angle_r	hip_flexion_l	hip_adduction_l	hip_rotation_l	knee_angle_l	knee_angle_l_beta	ankle_angle_l	subtalar_angle_l	mtp_angle_l	L5_S1_Flex_Ext	L5_S1_Lat_Bending	L5_S1_axial_rotation	L4_L5_Flex_Ext	L4_L5_Lat_Bending	L4_L5_axial_rotation	L3_L4_Flex_Ext	L3_L4_Lat_Bending	L3_L4_axial_rotation	L2_L3_Flex_Ext	L2_L3_Lat_Bending	L2_L3_axial_rotation	L1_L2_Flex_Ext	L1_L2_Lat_Bending	L1_L2_axial_rotation	L1_T12_Flex_Ext	L1_T12_Lat_Bending	L1_T12_axial_rotation	Abs_r3	Abs_r2	Abs_r1	Abs_t1	Abs_t2	neck_flexion	neck_bending	neck_rotation	arm_flex_r	arm_add_r	arm_rot_r	elbow_flex_r	pro_sup_r	wrist_flex_r	wrist_dev_r	arm_flex_l	arm_add_l	arm_rot_l	elbow_flex_l	pro_sup_l	wrist_flex_l	wrist_dev_l
      2.65000000	     -3.30073296	     -3.46766914	     88.82936617	      0.26526997	      0.70162382	      0.72435388	      5.72162243	     -3.10415313	      2.90592740	      6.78224864	      0.11837257	     15.75773134	      1.29533476	      0.00000000	      5.47207824	      0.23204310	    -19.50548637	      8.91464829	      0.15558996	     17.90200385	     15.74815269	      0.00000000	     -0.05643413	     -0.30861327	      2.18508683	     -0.10480383	     -0.41045565	      2.32165476	     -0.09271564	     -0.75036231	      2.32165476	     -0.06449857	     -0.75036231	      1.91195098	     -0.05240474	     -0.62932419	      1.77538305	     -0.03224646	     -0.47804196	      1.63881513	     -0.40310338	     -3.49109506	     12.15279745	      0.00000000	      0.00000000	     27.12564511	      7.79251025	     16.67641855	     -1.25185599	    -10.25888857	     24.63639771	     78.88840902	     87.47814882	      7.07831853	      4.32728714	     14.46134498	    -21.05317917	     50.90183342	     74.94679774	     66.38727213	     20.78015258	      7.88868806
      2.66666667	     -3.33171296	     -3.72522336	     89.10875147	      0.26564767	      0.70103581	      0.72484220	      5.91563382	     -3.16830449	      2.16361252	      6.80855269	      0.11883166	     16.07187062	      2.44869815	      0.00000000	      5.86692296	      0.26724540	    -18.63651554	      9.00879212	      0.15723308	     17.65457607	     14.82864586	      0.00000000	     -0.04045429	     -0.31238818	      2.05026544	     -0.07512767	     -0.41547628	      2.17840703	     -0.06646236	     -0.75954062	      2.17840703	     -0.04623521	     -0.75954062	      1.79398226	     -0.03756586	     -0.63702198	      1.66584067	     -0.02311558	     -0.48388929	      1.53769908	     -0.28896098	     -3.53379757	     11.40296129	      0.00000000	      0.00000000	     27.33591788	      8.10313658	     17.99747549	     -1.37295417	     -9.78366003	     23.75502768	     78.73671534	     86.97260402	     10.87393730	      6.43676188	     13.98094554	    -21.56206439	     50.97000540	     76.02643928	     68.48422083	     15.30883084	      6.59202559
      2.68333333	     -3.34509530	     -3.79560571	     89.10272484	      0.26641918	      0.70060976	      0.72540474	      5.94530082	     -3.14730031	      2.22939546	      6.86564824	      0.11982817	     15.97092547	      2.54963310	      0.00000000	      5.96173004	      0.23691887	    -18.62328250	      8.96970342	      0.15655086	     17.73225917	     14.81887366	      0.00000000	     -0.04373580	     -0.32058369	      2.03411182	     -0.08122176	     -0.42637631	      2.16124381	     -0.07185355	     -0.77946718	      2.16124381	     -0.04998565	     -0.77946718	      1.77984784	     -0.04061307	     -0.65373426	      1.65271585	     -0.02499064	     -0.49658413	      1.52558386	     -0.31240047	     -3.62650681	     11.31311970	      0.00000000	      0.00000000	     27.42632638	      8.12794547	     18.06301222	     -1.46427967	     -9.67074452	     23.60109333	     78.68153929	     86.89732944	     10.82576471	      6.44036558	     14.09900567	    -21.47202415	     50.82705797	     75.86623416	     68.47376220	     15.09220805	      6.50508213
      2.70000000	     -3.36186898	     -3.99633544	     89.06713383	      0.26697562	      0.70004959	      0.72586377	      6.26853076	     -3.24680697	      0.67379692	      7.26381282	      0.12677745	     16.28736597	      4.74145481	      0.00000000	      6.22354048	      0.23567353	    -18.24283628	      9.00685643	      0.15719930	     17.76108802	     14.36775367	      0.00000000	     -0.02246915	     -0.32348766	      2.06377860	     -0.04172746	     -0.43023859	      2.19276476	     -0.03691457	     -0.78652790	      2.19276476	     -0.02567999	     -0.78652790	      1.80580627	     -0.02086485	     -0.65965604	      1.67682011	     -0.01283887	     -0.50108239	      1.54783395	     -0.16049491	     -3.65935711	     11.47811743	      0.00000000	      0.00000000	     27.52577530	      8.46115088	     18.53041301	     -1.91088883	     -9.25121459	     22.73108516	     78.70636511	     86.14661211	     10.29214714	      6.69472885	     14.86349155	    -22.12344921	     54.39021203	     77.04202743	     66.12485871	      2.50057712	      2.05567660
